<?xml version="1.0" standalone="no"?>
<svg xmlns:xlink="http://www.w3.org/1999/xlink" id="wave" style="transform:rotate(180deg); transition: 0.3s" viewBox="0 0 1440 490" version="1.1" xmlns="http://www.w3.org/2000/svg"><defs><linearGradient id="sw-gradient-0" x1="0" x2="0" y1="1" y2="0"><stop stop-color="rgba(0, 128, 96, 1)" offset="0%"/><stop stop-color="rgba(0, 128, 96, 1)" offset="100%"/></linearGradient></defs><path style="transform:translate(0, 0px); opacity:1" fill="url(#sw-gradient-0)" d="M0,49L34.3,81.7C68.6,114,137,180,206,196C274.3,212,343,180,411,155.2C480,131,549,114,617,89.8C685.7,65,754,33,823,24.5C891.4,16,960,33,1029,57.2C1097.1,82,1166,114,1234,147C1302.9,180,1371,212,1440,212.3C1508.6,212,1577,180,1646,163.3C1714.3,147,1783,147,1851,122.5C1920,98,1989,49,2057,81.7C2125.7,114,2194,229,2263,228.7C2331.4,229,2400,114,2469,57.2C2537.1,0,2606,0,2674,65.3C2742.9,131,2811,261,2880,277.7C2948.6,294,3017,196,3086,155.2C3154.3,114,3223,131,3291,187.8C3360,245,3429,343,3497,334.8C3565.7,327,3634,212,3703,147C3771.4,82,3840,65,3909,81.7C3977.1,98,4046,147,4114,212.3C4182.9,278,4251,359,4320,383.8C4388.6,408,4457,376,4526,367.5C4594.3,359,4663,376,4731,359.3C4800,343,4869,294,4903,269.5L4937.1,245L4937.1,490L4902.9,490C4868.6,490,4800,490,4731,490C4662.9,490,4594,490,4526,490C4457.1,490,4389,490,4320,490C4251.4,490,4183,490,4114,490C4045.7,490,3977,490,3909,490C3840,490,3771,490,3703,490C3634.3,490,3566,490,3497,490C3428.6,490,3360,490,3291,490C3222.9,490,3154,490,3086,490C3017.1,490,2949,490,2880,490C2811.4,490,2743,490,2674,490C2605.7,490,2537,490,2469,490C2400,490,2331,490,2263,490C2194.3,490,2126,490,2057,490C1988.6,490,1920,490,1851,490C1782.9,490,1714,490,1646,490C1577.1,490,1509,490,1440,490C1371.4,490,1303,490,1234,490C1165.7,490,1097,490,1029,490C960,490,891,490,823,490C754.3,490,686,490,617,490C548.6,490,480,490,411,490C342.9,490,274,490,206,490C137.1,490,69,490,34,490L0,490Z"/></svg>